<svg width="24" height="24" viewBox="0 0 24 24" fill="none" xmlns="http://www.w3.org/2000/svg">
<path d="M2.35706 7.714L9.33706 12.368C10.3001 13.009 10.7811 13.33 11.3011 13.455C11.7611 13.565 12.2401 13.565 12.6991 13.455C13.2191 13.33 13.7001 13.009 14.6631 12.368L21.6431 7.714M7.15706 19.5H16.8431C18.5231 19.5 19.3631 19.5 20.0051 19.173C20.5691 18.8852 21.0277 18.4263 21.3151 17.862C21.6431 17.22 21.6431 16.38 21.6431 14.7V9.3C21.6431 7.62 21.6431 6.78 21.3161 6.138C21.0284 5.57354 20.5695 5.11462 20.0051 4.827C19.3631 4.5 18.5231 4.5 16.8431 4.5H7.15706C5.47706 4.5 4.63706 4.5 3.99506 4.827C3.43097 5.11479 2.97241 5.57369 2.68506 6.138C2.35706 6.78 2.35706 7.62 2.35706 9.3V14.7C2.35706 16.38 2.35706 17.22 2.68406 17.862C2.97167 18.4265 3.43059 18.8854 3.99506 19.173C4.63706 19.5 5.47706 19.5 7.15706 19.5Z" stroke="#15EDC3" stroke-width="1.5" stroke-linecap="round" stroke-linejoin="round"/>
</svg>
